Coordinates
version=1
nRows=14
nColumns=40
inDegrees=yes

Units are S.I. units (second, meters, Newtons, ...)
Angles are in degrees.

endheader
time	pelvis_tilt	pelvis_list	pelvis_rotation	pelvis_tx	pelvis_ty	pelvis_tz	hip_flexion_r	hip_adduction_r	hip_rotation_r	knee_angle_r	knee_angle_r_beta	ankle_angle_r	subtalar_angle_r	mtp_angle_r	hip_flexion_l	hip_adduction_l	hip_rotation_l	knee_angle_l	knee_angle_l_beta	ankle_angle_l	subtalar_angle_l	mtp_angle_l	lumbar_extension	lumbar_bending	lumbar_rotation	arm_flex_r	arm_add_r	arm_rot_r	elbow_flex_r	pro_sup_r	wrist_flex_r	wrist_dev_r	arm_flex_l	arm_add_l	arm_rot_l	elbow_flex_l	pro_sup_l	wrist_flex_l	wrist_dev_l
     45.01128571	     -4.04766796	     -4.39152525	      5.39261442	      1.07413897	      0.93221618	      0.48339783	      8.21648436	      2.76860903	    -17.63645249	     13.88023460	     13.88023460	     10.90425683	     -1.91037784	     -4.52828103	     33.28064853	    -12.78529404	      1.63940722	     55.37397391	     55.37397391	      7.83799190	    -18.51923279	     10.81841597	     -9.50947749	      4.29552223	      2.70202262	     27.99190105	    -23.11157707	     -4.83950215	     87.77133861	     43.90944692	      0.00000000	      0.00000000	     -5.35782714	     -6.44276005	     -9.81092096	     26.10357136	     45.15948095	      0.00000000	      0.00000000
     45.02507143	     -4.36612367	     -4.44635247	      5.74422059	      1.07224145	      0.93189084	      0.48338870	      8.18669739	      2.84814534	    -17.89568305	     13.66310781	     13.66310781	     10.99340727	     -1.99031953	     -4.55892158	     34.02546123	    -12.57289559	      1.39302732	     52.34864173	     52.34864173	      8.29411069	    -18.38518863	     11.15503764	     -9.35785182	      4.36951004	      3.08859658	     29.38055195	    -23.61464292	     -5.19958588	     88.34222603	     43.91267924	      0.00000000	      0.00000000	     -5.93571880	     -6.07143338	     -9.72851398	     25.99981682	     45.13633607	      0.00000000	      0.00000000
     45.03885714	     -4.50800571	     -4.23856840	      6.08639008	      1.07050747	      0.93194437	      0.48297485	      7.69848276	      2.66619033	    -18.34049991	     13.00993562	     13.00993562	     10.93052859	     -1.45096262	     -5.07295207	     34.22450039	    -11.96352655	      1.13611201	     48.84442156	     48.84442156	      8.58405866	    -18.39112067	     11.76251886	     -9.57445967	      4.21888713	      3.23856196	     30.75977616	    -23.68930415	     -6.07708856	     90.37052249	     43.98816255	      0.00000000	      0.00000000	     -7.03095718	     -6.00576466	     -8.04856545	     27.16839083	     44.89439426	      0.00000000	      0.00000000
     45.05264286	     -4.73613997	     -4.22065993	      6.41514258	      1.06874800	      0.93159988	      0.48248493	      7.43292805	      2.68803435	    -18.56910493	     12.55634554	     12.55634554	     10.98778984	     -1.39756913	     -5.13819097	     34.44115078	    -11.49716452	      1.02044995	     45.16978269	     45.16978269	      8.63833222	    -18.13465884	     11.75423004	     -9.57302562	      4.26296012	      3.26645321	     32.41455634	    -23.71827496	     -6.37623793	     91.08768758	     44.01895807	      0.00000000	      0.00000000	     -7.55481346	     -5.78203359	     -7.42144119	     26.86598919	     44.81522942	      0.00000000	      0.00000000
     45.06642857	     -5.02078284	     -4.19409444	      6.69701416	      1.06699497	      0.93102642	      0.48184675	      7.31797829	      2.65376321	    -18.72281204	     12.28769740	     12.28769740	     11.12238679	     -1.40153388	     -5.22539443	     34.58264831	    -10.98391188	      0.94645964	     41.41459135	     41.41459135	      8.76055318	    -17.51594927	     12.01938282	     -9.49711771	      4.29334802	      3.50387984	     33.85065042	    -24.03285451	     -6.68290713	     91.58751346	     44.02819559	      0.00000000	      0.00000000	     -7.92539757	     -5.53854308	     -7.25471629	     26.74642441	     44.78955821	      0.00000000	      0.00000000
     45.08021429	     -5.18872064	     -4.19927059	      6.96936226	      1.06538155	      0.93053113	      0.48104805	      7.02547098	      2.66638978	    -18.96723334	     11.94297142	     11.94297142	     11.26723526	     -1.25479151	     -5.39109208	     34.44736281	    -10.46714596	      0.98749916	     37.56793538	     37.56793538	      8.71366639	    -16.66238275	     12.05158514	     -9.53470600	      4.35615350	      3.60209573	     35.21649588	    -24.05682325	     -6.99230660	     92.07322703	     44.04115153	      0.00000000	      0.00000000	     -8.28050961	     -5.34941058	     -7.01901681	     26.58983068	     44.75646996	      0.00000000	      0.00000000
     45.09400000	     -5.33468294	     -4.25948072	      7.23029733	      1.06395858	      0.92992989	      0.48012319	      6.67140341	      2.73588679	    -19.29421295	     11.53386991	     11.53386991	     11.37073178	     -0.94548324	     -5.66115624	     34.19959850	    -10.02945517	      1.03166891	     33.81393231	     33.81393231	      8.52976812	    -15.38520682	     11.67093574	     -9.56947830	      4.48042663	      3.64600802	     36.55895449	    -23.93800704	     -7.36556801	     92.32721688	     44.06976529	      0.00000000	      0.00000000	     -8.57407464	     -5.18384256	     -6.67693179	     26.42706707	     44.71313631	      0.00000000	      0.00000000
     45.10778571	     -5.51859289	     -4.34141662	      7.43234870	      1.06267199	      0.92917914	      0.47910746	      6.37517832	      2.82378073	    -19.51592526	     11.17096145	     11.17096145	     11.50826028	     -0.71707026	     -5.91163662	     33.94426300	     -9.65297985	      0.97787023	     30.30895484	     30.30895484	      8.39608904	    -13.70232119	     11.47323180	     -9.51261403	      4.62223222	      3.77723916	     37.74184316	    -23.91173802	     -7.68581497	     92.40114944	     44.09734638	      0.00000000	      0.00000000	     -8.77719985	     -5.06759985	     -6.42056675	     26.30591454	     44.68192633	      0.00000000	      0.00000000
     45.12157143	     -5.69828591	     -4.43114800	      7.58606786	      1.06156583	      0.92842172	      0.47803871	      6.04969777	      2.92637879	    -19.70987276	     10.77425850	     10.77425850	     11.62252062	     -0.47603763	     -6.11530595	     33.64408354	     -9.32370324	      0.83217848	     27.12790468	     27.12790468	      8.21854850	    -11.80573528	     11.45855982	     -9.44897217	      4.73165967	      3.92151317	     38.78250973	    -23.84703617	     -7.97147062	     92.38073505	     44.12229157	      0.00000000	      0.00000000	     -8.89916917	     -4.96913317	     -6.22527510	     26.20445137	     44.65883482	      0.00000000	      0.00000000
     45.13535714	     -5.71933827	     -4.64741592	      7.73713795	      1.06090699	      0.92772116	      0.47686492	      5.39214755	      3.21518714	    -20.13443741	     10.08587192	     10.08587192	     11.61165783	      0.22085322	     -6.69882179	     33.21239512	     -9.23307151	      0.37771267	     24.40937137	     24.40937137	      7.76033381	     -9.50190666	     10.22681681	     -9.42381284	      5.02945386	      3.80333322	     40.00100107	    -23.18262240	     -8.54657767	     91.47844209	     44.21745271	      0.00000000	      0.00000000	     -9.06635295	     -4.97487365	     -5.55348219	     25.98522682	     44.59280912	      0.00000000	      0.00000000
     45.14914286	     -5.84767410	     -4.71565202	      7.78895162	      1.06030056	      0.92699580	      0.47561890	      4.99773672	      3.29685623	    -20.19214000	      9.73674537	      9.73674537	     11.78004285	      0.39582742	     -6.84798044	     32.79462569	     -8.92654276	      0.03222252	     22.06183130	     22.06183130	      7.43478685	     -7.81902540	     10.34602310	     -9.34423080	      5.08752591	      3.96202453	     40.60710745	    -23.09206224	     -8.69531711	     91.30827435	     44.24234822	      0.00000000	      0.00000000	     -9.08453039	     -4.99848566	     -5.40182639	     26.00259167	     44.58193314	      0.00000000	      0.00000000
     45.16292857	     -5.90472611	     -4.86332744	      7.83468915	      1.06005491	      0.92629008	      0.47425296	      4.42718969	      3.49215282	    -20.33764685	      9.21801945	      9.21801945	     11.90940408	      0.84057300	     -7.00456393	     32.39943423	     -8.76349885	     -0.53152565	     20.34495921	     20.34495921	      7.05415197	     -6.08673128	     10.16076958	     -9.24920814	      5.26239290	      4.04495922	     41.15779784	    -22.78476057	     -9.02138992	     90.79081878	     44.28671056	      0.00000000	      0.00000000	     -9.04558368	     -5.05698882	     -5.20632152	     25.99203581	     44.56962071	      0.00000000	      0.00000000
     45.17671429	     -5.94511464	     -5.05352517	      7.82353511	      1.06010222	      0.92551156	      0.47288737	      3.80071795	      3.73416685	    -20.55729527	      8.65298861	      8.65298861	     12.05332138	      1.49897773	     -7.18319190	     32.04729851	     -8.72181217	     -1.30246761	     19.20076558	     19.20076558	      6.47406057	     -4.49647607	      9.19015909	     -9.12103554	      5.43426863	      4.02228899	     41.75361008	    -22.12692837	     -9.58082285	     89.71038144	     44.37082792	      0.00000000	      0.00000000	     -9.03788525	     -5.15757077	     -4.86451171	     26.00705402	     44.55282175	      0.00000000	      0.00000000
     45.19050000	     -6.07644877	     -5.11153973	      7.75058079	      1.06023806	      0.92468820	      0.47132465	      3.40642203	      3.76245273	    -20.48604931	      8.40949054	      8.40949054	     12.30754005	      1.73314732	     -7.23950662	     31.68888526	     -8.47411039	     -1.82371731	     18.34913575	     18.34913575	      5.88989827	     -3.81720501	      9.00117563	     -8.92121421	      5.44854337	      4.08158017	     41.77580277	    -21.86325586	     -9.71459407	     89.26926600	     44.39920907	      0.00000000	      0.00000000	     -8.91475868	     -5.30719826	     -4.78506802	     26.10674882	     44.55606919	      0.00000000	      0.00000000
